<?xml version="1.0" encoding="UTF-8"?>
<svg width="42px" height="42px" viewBox="0 0 42 42" version="1.1" xmlns="http://www.w3.org/2000/svg" xmlns:xlink="http://www.w3.org/1999/xlink">
    <!-- Generator: Sketch 51.2 (57519) - http://www.bohemiancoding.com/sketch -->
    <title>avtar</title>
    <desc>Created with Sketch.</desc>
    <defs></defs>
    <g id="13-Side_menu" stroke="none" stroke-width="1" fill="none" fill-rule="evenodd">
        <g id="2-Left_nav_without_login_full_view" transform="translate(-17.000000, -42.000000)" fill="#FFFFFF">
            <g id="user_icon_white" transform="translate(17.000000, 42.000000)">
                <g id="round-account-button-with-user-inside">
                    <path d="M21,0 C9.45,0 0,9.45 0,21 C0,32.55 9.45,42 21,42 C32.55,42 42,32.55 42,21 C42,9.45 32.55,0 21,0 Z M21,6.3 C24.57,6.3 27.3,9.03 27.3,12.6 C27.3,16.17 24.57,18.9 21,18.9 C17.43,18.9 14.7,16.17 14.7,12.6 C14.7,9.03 17.43,6.3 21,6.3 Z M21,36.12 C15.75,36.12 11.13,33.3900824 8.4,29.4 C8.4,25.2 16.8,22.89 21,22.89 C25.2,22.89 33.6,25.2 33.6,29.4 C30.87,33.39 26.25,36.12 21,36.12 Z" id="Shape" fill-rule="nonzero"></path>
                </g>
            </g>
        </g>
    </g>
</svg>