<svg width="25" height="24" viewBox="0 0 25 24" fill="none" xmlns="http://www.w3.org/2000/svg">
<path d="M8.48387 19.3263C8.48387 19.2272 8.3871 19.1281 8.24194 19.1281C8.09677 19.1281 8 19.2272 8 19.3263C8 19.4254 8.09677 19.5246 8.24194 19.475C8.3871 19.475 8.48387 19.4254 8.48387 19.3263ZM6.98387 19.0786C6.98387 19.1777 7.08064 19.3263 7.22581 19.3263C7.32258 19.3759 7.46774 19.3263 7.51613 19.2272C7.51613 19.1281 7.46774 19.029 7.32258 18.9795C7.17742 18.9299 7.03226 18.9795 6.98387 19.0786ZM9.16129 19.029C9.01613 19.029 8.91935 19.1281 8.91935 19.2768C8.91935 19.3759 9.06452 19.4254 9.20968 19.3759C9.35484 19.3263 9.45161 19.2768 9.40323 19.1777C9.40323 19.0786 9.25806 18.9795 9.16129 19.029ZM12.3065 0C5.62903 0 0.5 5.2528 0.5 12.0913C0.5 17.5919 3.83871 22.2996 8.67742 23.9845C9.30645 24.0836 9.5 23.6871 9.5 23.3898C9.5 23.0429 9.5 21.3581 9.5 20.3174C9.5 20.3174 6.1129 21.0607 5.3871 18.8308C5.3871 18.8308 4.85484 17.3937 4.08065 17.0468C4.08065 17.0468 2.96774 16.2539 4.12903 16.2539C4.12903 16.2539 5.33871 16.3531 6.01613 17.5424C7.08064 19.475 8.82258 18.9299 9.54839 18.583C9.64516 17.7901 9.93548 17.245 10.3226 16.8982C7.6129 16.6008 4.85484 16.2044 4.85484 11.4471C4.85484 10.0596 5.24194 9.41539 6.01613 8.52341C5.87097 8.17653 5.48387 6.8881 6.16129 5.15369C7.12903 4.85636 9.5 6.49167 9.5 6.49167C10.4677 6.19434 11.4839 6.09523 12.5 6.09523C13.5645 6.09523 14.5806 6.19434 15.5484 6.49167C15.5484 6.49167 17.871 4.80681 18.8871 5.15369C19.5645 6.8881 19.129 8.17653 19.0323 8.52341C19.8065 9.41539 20.2903 10.0596 20.2903 11.4471C20.2903 16.2044 17.4355 16.6008 14.7258 16.8982C15.1613 17.2946 15.5484 18.0379 15.5484 19.2272C15.5484 20.8625 15.5 22.9438 15.5 23.3403C15.5 23.6871 15.7419 24.0836 16.371 23.9349C21.2097 22.2996 24.5 17.5919 24.5 12.0913C24.5 5.2528 19.0323 0 12.3065 0ZM5.19355 17.0964C5.09677 17.1459 5.14516 17.2946 5.19355 17.3937C5.29032 17.4433 5.3871 17.4928 5.48387 17.4433C5.53226 17.3937 5.53226 17.245 5.43548 17.1459C5.33871 17.0964 5.24194 17.0468 5.19355 17.0964ZM4.66129 16.6999C4.6129 16.799 4.66129 16.8486 4.75806 16.8982C4.85484 16.9477 4.95161 16.9477 5 16.8486C5 16.799 4.95161 16.7495 4.85484 16.6999C4.75806 16.6504 4.70968 16.6504 4.66129 16.6999ZM6.20968 18.4839C6.16129 18.5335 6.16129 18.6821 6.30645 18.7812C6.40323 18.8803 6.54839 18.9299 6.59677 18.8308C6.64516 18.7812 6.64516 18.6326 6.54839 18.5335C6.45161 18.4344 6.30645 18.3848 6.20968 18.4839ZM5.67742 17.7406C5.58065 17.7901 5.58065 17.9388 5.67742 18.0379C5.77419 18.137 5.87097 18.1866 5.96774 18.137C6.01613 18.0875 6.01613 17.9388 5.96774 17.8397C5.87097 17.7406 5.77419 17.691 5.67742 17.7406Z" fill="#081B4B"/>
</svg>
