<svg width="14" height="14" viewBox="0 0 14 14" fill="none" xmlns="http://www.w3.org/2000/svg">
<path d="M12.8246 8.11033C12.7359 8.11033 12.648 8.12777 12.5661 8.16165C12.4841 8.19554 12.4097 8.2452 12.3469 8.3078C12.2842 8.37041 12.2345 8.44473 12.2005 8.52653C12.1666 8.60833 12.1491 8.696 12.1491 8.78454V11.4794C12.1491 11.6582 12.0779 11.8297 11.9513 11.9561C11.8246 12.0825 11.6528 12.1536 11.4737 12.1536H2.02535C1.84621 12.1536 1.67441 12.0825 1.54773 11.9561C1.42106 11.8297 1.3499 11.6582 1.3499 11.4794V8.78454C1.34321 8.61033 1.26917 8.44548 1.14332 8.32459C1.01748 8.2037 0.849609 8.13616 0.67495 8.13616C0.500292 8.13616 0.332423 8.2037 0.206577 8.32459C0.0807304 8.44548 0.00669172 8.61033 0 8.78454V11.4794C0.000262969 12.0154 0.213763 12.5293 0.593561 12.9082C0.973359 13.2871 1.48836 13.5 2.02535 13.5H11.4747C12.0118 13.5 12.527 13.287 12.9068 12.9079C13.2866 12.5288 13.5 12.0145 13.5 11.4784V8.78454C13.5 8.60573 13.4288 8.43424 13.3022 8.3078C13.1755 8.18136 13.0037 8.11033 12.8246 8.11033ZM6.27044 9.26272C6.33474 9.32414 6.41059 9.37226 6.49361 9.40429C6.57438 9.43989 6.6617 9.45827 6.75 9.45827C6.8383 9.45827 6.92562 9.43989 7.00639 9.40429C7.08941 9.37226 7.16526 9.32414 7.22956 9.26272L9.92837 6.56788C10.0554 6.44106 10.1268 6.26905 10.1268 6.0897C10.1268 5.91035 10.0554 5.73834 9.92837 5.61152C9.80131 5.4847 9.62899 5.41345 9.44931 5.41345C9.26962 5.41345 9.0973 5.4847 8.97024 5.61152L7.42495 7.1609V0.700034C7.42843 0.609389 7.41355 0.518974 7.3812 0.434204C7.34885 0.349434 7.29969 0.272052 7.23668 0.206691C7.17366 0.141331 7.09807 0.0893364 7.01445 0.053821C6.93082 0.0183057 6.84088 0 6.75 0C6.65912 0 6.56918 0.0183057 6.48555 0.053821C6.40193 0.0893364 6.32634 0.141331 6.26332 0.206691C6.20031 0.272052 6.15115 0.349434 6.1188 0.434204C6.08645 0.518974 6.07157 0.609389 6.07505 0.700034V7.1609L4.52876 5.61053C4.40171 5.48371 4.22939 5.41246 4.0497 5.41246C3.87002 5.41246 3.6977 5.48371 3.57064 5.61053C3.44359 5.73735 3.37221 5.90936 3.37221 6.08871C3.37221 6.26806 3.44359 6.44007 3.57064 6.56689L6.27044 9.26272Z" fill="black"/>
</svg>
