<?xml version="1.0" encoding="UTF-8"?>
<svg width="175px" height="27px" viewBox="0 0 175 27" version="1.1" xmlns="http://www.w3.org/2000/svg" xmlns:xlink="http://www.w3.org/1999/xlink">
    <!-- Generator: Sketch 52.4 (67378) - http://www.bohemiancoding.com/sketch -->
    <title>logo</title>
    <desc>Created with Sketch.</desc>
    <defs>
        <polygon id="path-1" points="0 0.33876 26.2075776 0.33876 26.2075776 26.39976 0 26.39976"></polygon>
    </defs>
    <g id="8_Landing" stroke="none" stroke-width="1" fill="none" fill-rule="evenodd">
        <g id="Landing" transform="translate(-93.000000, -89.000000)">
            <g id="Group-3" transform="translate(0.000000, -1.000000)">
                <g id="logo" transform="translate(93.000000, 90.000000)">
                    <g id="Group-44">
                        <path d="M35.6939052,22.21518 L33.6240776,22.21518 L33.6240776,15.46758 L35.7132155,15.46758 C37.8705431,15.46758 39.1595086,16.72578 39.1595086,18.83118 C39.1595086,20.50998 37.9695086,22.21518 35.6939052,22.21518 M35.6939052,11.70078 L29.6376983,11.70078 C29.4355431,11.70078 29.2744224,11.86218 29.2744224,12.06138 L29.2744224,25.62138 C29.2744224,25.81758 29.4355431,25.97898 29.6376983,25.97898 L35.7132155,25.97898 C40.4883017,25.97898 43.5737328,23.17398 43.5737328,18.83118 C43.5737328,14.49918 40.4804569,11.70078 35.6939052,11.70078" id="Fill-1" fill="#FEFEFE"></path>
                        <path d="M70.4275431,15.3849 C68.7553879,15.3849 67.3964224,16.2987 66.7905603,17.2029 C66.3440086,15.9957 65.3356466,15.3849 63.7956466,15.3849 C62.0921121,15.3849 60.8001293,16.2405 60.3523707,16.8171 L60.3523707,16.0005 C60.3523707,15.8013 60.1876293,15.6399 59.9872845,15.6399 L56.836681,15.6399 C56.6369397,15.6399 56.4752155,15.8013 56.4752155,16.0005 L56.4752155,25.6215 C56.4752155,25.8177 56.6369397,25.9791 56.836681,25.9791 L59.9872845,25.9791 C60.1876293,25.9791 60.3523707,25.8177 60.3523707,25.6215 L60.3523707,19.6005 L60.3523707,19.5987 C60.5798707,19.3359 61.0547845,18.7857 61.9231466,18.7857 C62.6871121,18.7857 63.1071121,19.1991 63.1071121,19.9449 L63.1071121,25.6215 C63.1071121,25.8177 63.27125,25.9791 63.4679741,25.9791 L66.6209914,25.9791 C66.8201293,25.9791 66.9842672,25.8177 66.9842672,25.6215 L66.9842672,19.6005 C67.2111638,19.3359 67.6854741,18.7857 68.5755603,18.7857 C69.3292672,18.7857 69.7613362,19.2093 69.7613362,19.9449 L69.7613362,25.6215 C69.7613362,25.8177 69.9218534,25.9791 70.1234052,25.9791 L73.2746121,25.9791 C73.47375,25.9791 73.6360776,25.8177 73.6360776,25.6215 L73.6360776,18.4875 C73.6360776,16.4847 72.4973707,15.3849 70.4275431,15.3849" id="Fill-3" fill="#FEFEFE"></path>
                        <path d="M78.7296638,15.63978 L75.5778534,15.63978 C75.3769052,15.63978 75.215181,15.80178 75.215181,16.00098 L75.215181,25.62138 C75.215181,25.81758 75.3769052,25.97898 75.5778534,25.97898 L78.7296638,25.97898 C78.9288017,25.97898 79.0917328,25.81758 79.0917328,25.62138 L79.0917328,16.00098 C79.0917328,15.80178 78.9288017,15.63978 78.7296638,15.63978" id="Fill-5" fill="#FEFEFE"></path>
                        <path d="M77.2487414,10.56678 C76.0496897,10.56678 75.0721034,11.53638 75.0721034,12.72798 C75.0721034,13.92258 76.0496897,14.89038 77.2487414,14.89038 C78.4465862,14.89038 79.423569,13.92258 79.423569,12.72798 C79.423569,11.53638 78.4465862,10.56678 77.2487414,10.56678" id="Fill-7" fill="#FEFEFE"></path>
                        <path d="M88.182681,15.3849 C86.1738017,15.3849 85.0809569,16.2807 84.6096638,16.8171 L84.6096638,16.0005 C84.6096638,15.8013 84.4473362,15.6399 84.2475948,15.6399 L81.0963879,15.6399 C80.89725,15.6399 80.734319,15.8013 80.734319,16.0005 L80.734319,25.6215 C80.734319,25.8177 80.89725,25.9791 81.0963879,25.9791 L84.2475948,25.9791 C84.4473362,25.9791 84.6096638,25.8177 84.6096638,25.6215 L84.6096638,19.6005 C84.8594914,19.3161 85.330181,18.7857 86.2667328,18.7857 C87.2678534,18.7857 87.7753534,19.2831 87.7753534,20.2635 L87.7753534,25.6215 C87.7753534,25.8177 87.9364741,25.9791 88.1386293,25.9791 L91.2886293,25.9791 C91.4889741,25.9791 91.6488879,25.8177 91.6488879,25.6215 L91.6488879,18.6393 C91.6488879,16.5993 90.3556983,15.3849 88.182681,15.3849" id="Fill-9" fill="#FEFEFE"></path>
                        <path d="M49.8231034,22.58142 C48.7863793,22.58142 47.95,21.74442 47.95,20.71482 C47.95,19.68702 48.7863793,18.85362 49.8231034,18.85362 C50.8568103,18.85362 51.6962069,19.68702 51.6962069,20.71482 C51.6962069,21.74442 50.8568103,22.58142 49.8231034,22.58142 M49.8231034,15.33642 C46.7913793,15.33642 44.3323276,17.78022 44.3323276,20.79042 C44.3323276,23.81022 46.7913793,26.24922 49.8231034,26.24922 C52.8548276,26.24922 55.3126724,23.81022 55.3126724,20.79042 C55.3126724,17.78022 52.8548276,15.33642 49.8231034,15.33642" id="Fill-11" fill="#FEFEFE"></path>
                        <path d="M98.2892931,22.59666 C97.2543793,22.59666 96.4173966,21.75966 96.4173966,20.73306 C96.4173966,19.70526 97.2543793,18.87186 98.2892931,18.87186 C99.3260172,18.87186 100.163603,19.70526 100.163603,20.73306 C100.163603,21.75966 99.3260172,22.59666 98.2892931,22.59666 M98.2892931,15.35166 C95.2593793,15.35166 92.800931,17.79546 92.800931,20.81046 C92.800931,23.82546 95.2593793,26.26746 98.2892931,26.26746 C101.321017,26.26746 103.782483,23.82546 103.782483,20.81046 C103.782483,17.79546 101.321017,15.35166 98.2892931,15.35166" id="Fill-13" fill="#FEFEFE"></path>
                        <path d="M106.735819,12.26598 L106.734612,12.26898 C106.493836,11.19078 105.314698,10.41498 104.154267,10.65318 C102.982371,10.89558 102.212974,11.97858 102.440474,13.06878 C102.628147,13.97118 103.43556,14.59878 104.370302,14.65398 C104.31056,15.02358 103.982888,15.35418 103.709526,15.50598 C103.527284,15.60918 103.635905,15.80358 103.635905,15.80358 L103.877284,16.15938 C103.947888,16.27818 104.052284,16.33938 104.178405,16.28898 C106.607284,15.29898 107.00194,13.22598 106.735819,12.26598" id="Fill-15" fill="#FEFEFE"></path>
                        <path d="M109.602741,18.71832 C109.59369,18.33132 110.096966,18.15972 110.726966,18.15972 C111.981534,18.15972 112.695414,18.51552 113.495586,19.04052 C113.578259,19.09632 113.680845,19.11432 113.778603,19.09092 C113.875759,19.06872 113.960241,19.00572 114.008517,18.91752 L115.073,17.07912 C115.169552,16.90932 115.112224,16.69212 114.944466,16.59432 C114.068259,16.07352 112.788345,15.40512 110.565241,15.40512 C107.357914,15.40512 105.641103,16.90512 105.927741,19.06392 C106.432224,22.85592 112.363517,21.55572 112.269983,22.85172 C112.250069,23.14872 111.725069,23.37132 110.815672,23.37132 C109.641966,23.37132 108.308948,22.78752 107.468345,22.26972 C107.384466,22.21752 107.281276,22.20252 107.188345,22.22772 C107.092397,22.25292 107.010931,22.31292 106.963259,22.39932 L105.733431,24.43392 C105.641103,24.59832 105.688172,24.80532 105.846276,24.91152 C107.026017,25.70472 108.932914,26.23692 110.584552,26.23692 C113.796707,26.23692 115.646879,24.86592 115.648086,22.61352 C115.648086,18.45552 109.629293,19.74552 109.602741,18.71832" id="Fill-17" fill="#FEFEFE"></path>
                        <path d="M140.253388,25.60836 C140.253388,25.80756 140.415112,25.96776 140.615457,25.96776 L148.908043,25.96776 C149.12106,25.96776 149.271922,25.80756 149.271922,25.60836 L149.271922,22.99956 C149.271922,22.80276 149.108991,22.64136 148.908043,22.64136 L145.400802,22.64136 C145.400802,22.64136 148.415629,19.22016 148.952698,18.60156 C149.101147,18.42996 149.293043,18.25596 149.293043,17.80896 L149.293043,16.01916 C149.293043,15.82116 149.131922,15.65976 148.931578,15.65976 L140.615457,15.65976 C140.416922,15.65976 140.253388,15.81876 140.253388,16.01916 L140.253388,18.21756 L140.253388,18.62916 C140.253388,18.82836 140.415112,18.98796 140.615457,18.98796 L141.057784,18.98796 L144.18244,18.98796 C144.18244,18.98796 140.535802,23.12856 140.471836,23.20416 C140.324595,23.37396 140.253388,23.60856 140.253388,23.86056 L140.253388,25.60836 Z" id="Fill-19" fill="#FEFEFE"></path>
                        <path d="M150.58925,25.60836 C150.58925,25.80756 150.751578,25.96776 150.953129,25.96776 L159.246319,25.96776 C159.458129,25.96776 159.606578,25.80756 159.606578,25.60836 L159.606578,22.99956 C159.606578,22.80276 159.445457,22.64136 159.244509,22.64136 L155.772871,22.64136 C155.772871,22.64136 158.748474,19.21776 159.291578,18.60156 C159.438819,18.43176 159.628302,18.25596 159.628302,17.80896 C159.628302,17.71776 159.628905,16.01916 159.628905,16.01916 C159.628905,15.82116 159.468388,15.65976 159.26744,15.65976 L150.953129,15.65976 C150.751578,15.65976 150.58925,15.81876 150.58925,16.01916 L150.58925,18.21756 L150.58925,18.62916 C150.58925,18.82836 150.751578,18.98796 150.953129,18.98796 L151.393043,18.98796 L154.514681,18.98796 C154.514681,18.98796 150.873474,23.12856 150.808302,23.20416 C150.660457,23.37396 150.58925,23.60856 150.58925,23.86056 L150.58925,25.60836 Z" id="Fill-21" fill="#FEFEFE"></path>
                        <path d="M171.775293,15.63216 L168.62469,15.63216 C168.423741,15.63216 168.261414,15.79356 168.261414,15.99396 L168.261414,16.59936 C167.413569,15.82356 166.329776,15.35616 165.144,15.35616 C162.435121,15.35616 160.24219,17.80056 160.24219,20.81376 C160.24219,23.82816 162.435121,26.26956 165.144,26.26956 C166.329776,26.26956 167.413569,25.80216 168.261414,25.02756 L168.261414,25.60836 C168.261414,25.80756 168.423741,25.96776 168.62469,25.96776 L171.775293,25.96776 C171.973828,25.96776 172.136759,25.80756 172.136759,25.60836 L172.136759,15.99396 C172.136759,15.79356 171.973828,15.63216 171.775293,15.63216 M166.188569,22.78056 C165.042017,22.78056 164.116931,21.85596 164.116931,20.71476 C164.116931,19.58076 165.042017,18.65916 166.188569,18.65916 C167.333914,18.65916 168.261414,19.58076 168.261414,20.71476 C168.261414,21.85596 167.333914,22.78056 166.188569,22.78056" id="Fill-23" fill="#FEFEFE"></path>
                        <path d="M138.580931,15.6597 L135.435759,15.6597 C135.237828,15.6597 135.0755,15.8217 135.0755,16.0191 L135.0755,25.6113 C135.0755,25.8075 135.237828,25.9695 135.435759,25.9695 L138.580931,25.9695 C138.779466,25.9695 138.94119,25.8075 138.94119,25.6113 L138.94119,16.0191 C138.94119,15.8217 138.779466,15.6597 138.580931,15.6597" id="Fill-25" fill="#FEFEFE"></path>
                        <path d="M137.008103,10.60014 C135.813879,10.60014 134.83931,11.56674 134.83931,12.75654 C134.83931,13.94514 135.813879,14.91234 137.008103,14.91234 C138.204138,14.91234 139.1775,13.94514 139.1775,12.75654 C139.1775,11.56674 138.204138,10.60014 137.008103,10.60014" id="Fill-27" fill="#FEFEFE"></path>
                        <path d="M131.892914,12.80388 C130.564724,11.88768 129.198517,11.67288 127.054466,11.67288 L123.029466,11.68848 C122.839379,11.68848 122.686103,11.83908 122.686103,12.02928 L122.686103,25.62828 C122.686103,25.81608 122.839379,25.96728 123.029466,25.96728 L126.305586,25.96728 L126.698431,25.96728 C126.886707,25.96728 127.042397,25.81608 127.042397,25.62648 L127.039983,25.21488 L127.042397,22.21008 C128.920931,22.21008 130.829034,22.19028 132.241707,20.97228 C133.227741,20.12688 133.965759,18.76068 133.965759,16.91508 C133.965759,15.48288 133.232569,13.72308 131.892914,12.80388 M127.83231,18.63708 L127.042397,18.63708 L127.042397,15.38988 L127.858259,15.38988 C129.479121,15.38988 129.939552,16.17948 129.939552,16.90488 C129.939552,17.79888 129.540069,18.63708 127.83231,18.63708" id="Fill-29" fill="#FEFEFE"></path>
                        <g id="Group-33" transform="translate(0.000000, 0.261360)">
                            <mask id="mask-2" fill="white">
                                <use xlink:href="#path-1"></use>
                            </mask>
                            <g id="Clip-32"></g>
                            <path d="M25.742319,7.88136 L18.6228362,0.80376 C18.322319,0.50556 17.9234397,0.33876 17.4986121,0.33876 C17.0743879,0.33876 16.6736983,0.50556 16.373181,0.80376 L10.4014569,6.74076 L0.465681034,16.61976 C-0.155267241,17.23716 -0.155267241,18.24156 0.465681034,18.85836 L7.5839569,25.93776 C7.88507759,26.23596 8.28456034,26.39976 8.70878448,26.39976 C9.13421552,26.39976 9.53490517,26.23596 9.83542241,25.93776 L18.7429224,17.07996 L25.742319,10.11876 C26.3626638,9.50196 26.3626638,8.49996 25.742319,7.88136" id="Fill-31" fill="#FEFEFE" mask="url(#mask-2)"></path>
                        </g>
                        <path d="M18.9782672,10.69332 C18.5751638,11.09472 18.0453362,11.29392 17.5203362,11.29392 C16.9929224,11.29392 16.4649052,11.09472 16.0611983,10.69332 C15.6605086,10.29372 15.4565431,9.76692 15.4565431,9.24372 C15.4565431,8.71812 15.6605086,8.19312 16.0611983,7.79472 C16.4649052,7.39332 16.9917155,7.19052 17.5203362,7.19292 C18.0453362,7.19292 18.5751638,7.39332 18.9782672,7.79472 C19.3801638,8.19312 19.5835259,8.71812 19.5835259,9.24372 C19.5835259,9.76692 19.3801638,10.29372 18.9782672,10.69332 M25.2384397,8.64492 L18.1195603,1.56792 C17.7768017,1.22712 17.2204224,1.22712 16.8764569,1.56792 L9.17887069,9.22092 L17.5396466,17.53572 L25.2384397,9.88152 C25.5811983,9.54132 25.5811983,8.98872 25.2384397,8.64492" id="Fill-34" fill="#DC062B"></path>
                        <path d="M10.2695431,16.60428 C10.6720431,16.20288 11.2000603,16.00368 11.7268707,16.00368 C12.2560948,16.00368 12.7835086,16.20288 13.1848017,16.60428 C13.590319,17.00568 13.7918707,17.52888 13.7918707,18.05388 C13.7918707,18.57828 13.590319,19.10448 13.1848017,19.50288 C12.7835086,19.90248 12.2560948,20.10348 11.7268707,20.10348 C11.2000603,20.10348 10.6720431,19.90248 10.2695431,19.50288 C9.8670431,19.10148 9.66549138,18.57648 9.66549138,18.05388 C9.66549138,17.53068 9.8670431,17.00568 10.2695431,16.60428 Z M7.13462931,19.42188 C6.73092241,19.81788 6.20290517,20.02068 5.67609483,20.02068 C5.14747414,20.02068 4.62006034,19.82148 4.21635345,19.42188 C3.8144569,19.02348 3.61350862,18.49548 3.61350862,17.97228 C3.61350862,17.44788 3.8144569,16.92168 4.21635345,16.52028 C4.62006034,16.12188 5.14747414,15.92268 5.67609483,15.92268 C6.20290517,15.92268 6.73092241,16.12188 7.13462931,16.52028 C7.53773276,16.92168 7.73687069,17.44788 7.73687069,17.97228 C7.73687069,18.49548 7.53773276,19.02348 7.13462931,19.42188 Z M0.969801724,17.38188 C0.625836207,17.72508 0.625836207,18.27828 0.969801724,18.61848 L8.08807759,25.69728 C8.26066379,25.86768 8.4845431,25.95408 8.70902586,25.95408 C8.93471552,25.95408 9.15980172,25.86768 9.33118103,25.69728 L17.0251466,18.04848 L8.66256034,9.73368 L0.969801724,17.38188 Z" id="Fill-36" fill="#0073AA"></path>
                        <polygon id="Fill-38" fill="#FEFEFE" points="12.9025086 25.90662 12.9025086 24.78522 12.4969914 24.78522 12.4969914 24.52782 13.6037155 24.52782 13.6037155 24.78522 13.1988017 24.78522 13.1988017 25.90662"></polygon>
                        <polygon id="Fill-40" fill="#FEFEFE" points="14.9993103 25.90662 14.9993103 24.91182 14.6094828 25.90662 14.4797414 25.90662 14.0875 24.91182 14.0875 25.90662 13.7918103 25.90662 13.7918103 24.52782 14.2075862 24.52782 14.5431034 25.39122 14.8810345 24.52782 15.2980172 24.52782 15.2980172 25.90662"></polygon>
                        <path d="M173.824905,16.24332 L173.493612,16.24332 L173.493612,16.68072 L173.824905,16.68072 C173.932922,16.68072 174.049991,16.59432 174.049991,16.46472 C174.049991,16.32972 173.932922,16.24332 173.824905,16.24332 Z M174.029474,17.32152 L173.709043,16.83552 L173.493612,16.83552 L173.493612,17.32152 L173.320422,17.32152 L173.320422,16.09152 L173.824905,16.09152 C174.034905,16.09152 174.229819,16.23792 174.229819,16.46472 C174.229819,16.73772 173.984216,16.83132 173.913009,16.83132 L174.244302,17.32152 L174.029474,17.32152 Z M173.734388,15.79092 C173.224474,15.79092 172.817147,16.19292 172.817147,16.70592 C172.817147,17.20512 173.224474,17.61672 173.734388,17.61672 C174.244302,17.61672 174.652233,17.20512 174.652233,16.70592 C174.652233,16.19292 174.244302,15.79092 173.734388,15.79092 Z M173.734388,17.77872 C173.138181,17.77872 172.653612,17.29632 172.653612,16.70592 C172.653612,16.10652 173.138181,15.62952 173.734388,15.62952 C174.336026,15.62952 174.81456,16.10652 174.81456,16.70592 C174.81456,17.29632 174.336026,17.77872 173.734388,17.77872 Z" id="Fill-42" fill="#FEFEFE"></path>
                    </g>
                </g>
            </g>
        </g>
    </g>
</svg>